<svg width="22" height="22" viewBox="0 0 22 22" fill="none" xmlns="http://www.w3.org/2000/svg">
  <path d="M10.9999 16.1999C11.3332 16.1999 11.6166 16.0832 11.8499 15.8499C12.0832 15.6166 12.1999 15.3332 12.1999 14.9999V12.1999H15.0249C15.3582 12.1999 15.6376 12.0832 15.8629 11.8499C16.0876 11.6166 16.1999 11.3332 16.1999 10.9999C16.1999 10.6666 16.0832 10.3832 15.8499 10.1499C15.6166 9.91657 15.3332 9.7999 14.9999 9.7999H12.1999V6.9749C12.1999 6.64157 12.0832 6.36224 11.8499 6.1369C11.6166 5.91224 11.3332 5.7999 10.9999 5.7999C10.6666 5.7999 10.3832 5.91657 10.1499 6.1499C9.91657 6.38324 9.7999 6.66657 9.7999 6.9999V9.7999H6.9749C6.64157 9.7999 6.36257 9.91657 6.1379 10.1499C5.91257 10.3832 5.7999 10.6666 5.7999 10.9999C5.7999 11.3332 5.91657 11.6166 6.1499 11.8499C6.38324 12.0832 6.66657 12.1999 6.9999 12.1999H9.7999V15.0249C9.7999 15.3582 9.91657 15.6372 10.1499 15.8619C10.3832 16.0872 10.6666 16.1999 10.9999 16.1999ZM10.9999 21.8499C9.48324 21.8499 8.06657 21.5666 6.7499 20.9999C5.43324 20.4332 4.28724 19.6626 3.3119 18.6879C2.33724 17.7126 1.56657 16.5666 0.999902 15.2499C0.433236 13.9332 0.149902 12.5166 0.149902 10.9999C0.149902 9.48324 0.433236 8.06657 0.999902 6.7499C1.56657 5.43324 2.33724 4.28724 3.3119 3.3119C4.28724 2.33724 5.43324 1.56657 6.7499 0.999902C8.06657 0.433236 9.48324 0.149902 10.9999 0.149902C12.5166 0.149902 13.9332 0.433236 15.2499 0.999902C16.5666 1.56657 17.7126 2.33724 18.6879 3.3119C19.6626 4.28724 20.4332 5.43324 20.9999 6.7499C21.5666 8.06657 21.8499 9.48324 21.8499 10.9999C21.8499 12.5166 21.5666 13.9332 20.9999 15.2499C20.4332 16.5666 19.6626 17.7126 18.6879 18.6879C17.7126 19.6626 16.5666 20.4332 15.2499 20.9999C13.9332 21.5666 12.5166 21.8499 10.9999 21.8499Z" fill="white"/>
</svg>
  