<svg width="254" height="85" viewBox="0 0 254 85" fill="none" xmlns="http://www.w3.org/2000/svg">
  <path d="M85.562 51.7315C80.2233 54.8457 74.8846 57.8858 69.5459 61C64.2073 57.8858 58.8686 54.8457 53.5299 51.7315C53.5299 45.5772 53.5299 39.4228 53.5299 33.1944C55.2353 32.1563 57.0149 31.1924 58.7944 30.1543C60.574 29.1162 62.4277 28.0782 64.2073 27.0401C65.9868 26.002 67.7664 24.9639 69.5459 24C71.3996 25.0381 73.1792 26.0762 75.0329 27.1142C75.1071 28.9679 75.0329 30.8216 75.0329 32.8236C75.1812 32.7495 75.3295 32.7495 75.4778 32.6754C76.8125 31.9339 78.1471 31.1924 79.4818 30.3768C79.6301 30.3026 79.8525 30.1543 80.075 30.0802C81.9287 31.1182 83.7824 32.1563 85.562 33.1944C85.562 35.3447 85.562 37.4208 85.562 39.6453C85.4137 39.7194 85.2654 39.8677 85.1171 39.9419C83.8566 40.6834 82.5219 41.4248 81.2614 42.1663C81.1131 42.2405 80.8906 42.3888 80.6682 42.5371C82.2994 43.501 83.9307 44.3908 85.4878 45.3547C85.6361 45.9479 85.6361 49.8778 85.562 51.7315ZM84.6722 45.5772C83.1151 44.6132 81.6321 43.7976 80.075 42.9078C78.2954 43.9459 76.59 44.9098 74.8105 45.9479C73.0309 46.986 71.3255 48.024 69.5459 48.988C67.7664 47.9499 65.9868 46.9118 64.2814 45.9479C64.059 46.0962 63.9107 46.1703 63.6882 46.2445C62.2053 47.1343 60.7223 48.024 59.1652 48.9138C59.0169 48.988 58.8686 48.988 58.7203 49.0621C58.7203 44.7615 58.7203 40.5351 58.7203 36.3828C58.7944 36.3086 58.8686 36.2345 58.9427 36.1603C60.7223 35.1222 62.4277 34.0842 64.2073 33.1202C64.2814 33.0461 64.4297 33.0461 64.5039 33.0461C64.5039 37.1984 64.5039 41.3507 64.5039 45.4289C65.9868 46.3186 67.4698 47.1343 68.9527 48.024C68.9527 48.024 69.0269 48.024 69.1752 48.024C69.2493 47.1343 69.1752 46.2445 69.1752 45.3547C69.1752 44.3908 69.1752 43.501 69.1752 42.5371C69.3976 42.3888 69.6201 42.2405 69.8425 42.1663C71.4738 41.2024 73.0309 40.3126 74.6622 39.3487C77.7764 37.5691 80.8906 35.7154 84.0049 33.9359C84.1532 33.8617 84.4497 33.7876 84.5239 33.491C83.0409 32.6012 81.558 31.7856 80.0008 30.8958C79.556 31.1924 79.1111 31.4148 78.6662 31.6373C78.2213 31.9339 77.7022 32.1563 77.2574 32.4529C76.8125 32.6754 76.3676 32.9719 75.9227 33.1944C75.4778 33.4168 75.0329 33.7876 74.4397 34.01C74.4397 32.8978 74.4397 31.8597 74.4397 30.8216C74.4397 29.7836 74.4397 28.6713 74.4397 27.5591C72.8085 26.5952 71.1772 25.7054 69.5459 24.8156C69.3976 24.8898 69.2493 24.9639 69.1752 25.0381C64.2814 27.8557 59.3876 30.6733 54.4938 33.491C54.3455 33.5651 54.1972 33.7134 54.0489 33.7876C53.9748 36.9018 53.9748 50.8417 54.1231 51.5832C59.0169 54.4008 63.9848 57.2926 68.9527 60.1844C69.0269 60.1844 69.101 60.2585 69.2493 60.2585C69.2493 58.3307 69.2493 56.477 69.2493 54.6232C74.3656 51.4349 79.4818 48.5431 84.6722 45.5772Z" fill="#910D10"/>
  <path d="M141.169 47.7611C140.279 47.8353 139.389 47.7611 138.499 47.8353C138.425 47.6128 138.351 47.4645 138.277 47.2421C137.832 46.0557 137.461 44.7952 137.016 43.6088C136.942 43.4605 136.942 43.3122 136.72 43.2381C136.349 44.7211 136.127 46.2782 135.83 47.7611C135.237 47.9094 132.79 47.9094 131.9 47.8353C131.9 47.8353 131.9 47.7611 131.826 47.7611V47.687C132.493 44.4245 133.087 41.2361 133.754 37.9736C134.347 37.8253 137.165 37.8253 138.425 37.8994C138.87 39.3824 139.241 40.9395 139.76 42.4966C139.834 42.2742 139.982 42.2 139.982 42.0517C140.279 40.8653 140.65 39.7531 140.946 38.5667C141.02 38.3443 141.095 38.0477 141.169 37.8253C141.762 37.7511 144.876 37.7511 145.766 37.8253C146.137 39.4565 146.433 41.0878 146.804 42.7932C147.175 44.4245 147.471 46.0557 147.768 47.6128C147.694 47.8353 147.545 47.7611 147.397 47.7611C146.359 47.7611 145.247 47.7611 144.209 47.7611C144.061 47.7611 143.986 47.7611 143.838 47.687C143.467 46.1299 143.245 44.6469 142.874 42.9415C142.355 43.9054 142.207 44.6469 141.91 45.3884C141.688 46.204 141.465 46.9455 141.169 47.7611Z" fill="#910D10"/>
  <path d="M108.024 43.1639C108.024 44.6469 108.024 46.204 108.024 47.687C107.505 47.8353 105.281 47.9094 104.095 47.7611C104.095 47.687 104.02 47.5387 104.02 47.3904C104.02 44.3503 104.02 41.2361 104.02 38.196C104.02 38.1218 104.02 37.9736 104.095 37.8994C104.169 37.8994 104.243 37.8253 104.317 37.8253C105.429 37.8253 106.541 37.8253 107.654 37.8253C107.95 37.8253 108.099 37.9736 108.321 38.196C109.359 39.5307 110.397 40.8653 111.509 42.1259C111.584 42.2742 111.732 42.4224 111.88 42.5707C112.028 42.2742 111.954 42.0517 111.954 41.8293C111.954 41.6068 111.954 41.3844 111.954 41.2361C111.954 41.0136 111.954 40.7912 111.954 40.5687C111.954 40.3463 111.954 40.1239 111.954 39.9756C111.954 39.7531 111.954 39.5307 111.954 39.3082C111.954 39.0858 111.954 38.8633 111.954 38.715C111.954 38.4926 111.954 38.2701 111.954 38.0477C112.622 37.9736 115.217 37.8994 115.884 38.0477C115.958 38.6409 115.958 47.0938 115.884 47.8353C115.365 47.9836 112.844 47.9836 111.88 47.8353C111.584 47.4645 111.287 47.0938 110.99 46.7231C110.694 46.3523 110.323 45.9074 110.026 45.5367C109.73 45.1659 109.433 44.7952 109.137 44.3503C108.84 43.9796 108.543 43.6088 108.247 43.2381C108.099 43.1639 108.024 43.1639 108.024 43.1639Z" fill="#910D10"/>
  <path d="M187.512 47.8352C186.622 47.8352 185.806 47.8352 185.065 47.8352C184.546 47.8352 184.101 47.7611 183.582 47.7611C183.285 47.3903 182.989 47.0196 182.692 46.723C181.802 45.6108 180.913 44.4986 180.097 43.4605C180.023 43.3863 179.875 43.238 179.726 43.0898C179.652 43.4605 179.726 43.6829 179.652 43.9795C179.652 44.2761 179.652 44.4986 179.652 44.7952C179.652 45.0918 179.652 45.3142 179.652 45.6108C179.652 45.8332 179.652 46.0557 179.652 46.2781C179.652 46.5747 179.652 46.7972 179.652 47.0938C179.652 47.3162 179.652 47.6128 179.652 47.9094C178.985 48.0577 178.317 47.9835 177.724 47.9835C177.057 47.9835 176.464 47.9835 175.722 47.9835C175.722 47.8352 175.648 47.7611 175.648 47.6869C175.648 44.5727 175.648 41.4585 175.648 38.4184C175.648 38.3443 175.648 38.196 175.722 38.0477C177.057 37.9735 178.317 38.0477 179.652 38.0477C180.319 38.8633 180.913 39.6048 181.58 40.4204C182.247 41.236 182.84 41.9775 183.582 42.8673C183.73 42.4224 183.656 41.9775 183.656 41.6068C183.656 41.236 183.656 40.7912 183.656 40.4204C183.656 40.0497 183.656 39.6048 183.656 39.234C183.656 38.8633 183.656 38.4926 183.656 38.1218C183.73 38.0477 183.804 38.0477 183.879 38.0477C185.065 38.0477 186.325 38.0477 187.586 38.0477C187.586 38.196 187.66 38.2701 187.66 38.4184C187.66 41.4585 187.66 44.5727 187.66 47.6128C187.512 47.5386 187.512 47.6128 187.512 47.8352Z" fill="#910D10"/>
  <path d="M168.455 48.0574C166.75 47.9833 165.193 47.4642 163.932 46.352C162.894 45.3881 162.301 44.1276 162.301 42.7187C162.301 41.4582 162.82 40.4201 163.71 39.5304C164.822 38.344 166.231 37.7508 167.862 37.6025C169.197 37.5284 170.531 37.7508 171.718 38.344C172.385 38.7147 172.978 39.1596 173.497 39.7528C175.054 41.6065 175.054 44.1276 173.423 45.9813C172.533 47.0193 171.421 47.6125 170.086 47.9091C169.567 47.9833 168.974 48.0574 168.455 48.0574ZM168.455 44.7207C168.752 44.6466 168.974 44.6466 169.197 44.5724C170.012 44.35 170.606 43.5344 170.606 42.7929C170.606 42.0514 170.086 41.3099 169.271 41.0133C169.048 40.9392 168.826 40.865 168.604 40.865C167.565 40.7909 166.75 41.5324 166.527 42.348C166.305 43.2378 166.75 44.1276 167.64 44.4983C167.862 44.6466 168.159 44.6466 168.455 44.7207Z" fill="#910D10"/>
  <path d="M130.788 47.7608C130.047 47.835 126.858 47.835 126.191 47.7608C126.043 47.3901 125.894 47.0193 125.746 46.6486C125.153 46.5745 123.225 46.5003 122.113 46.5745C121.816 46.871 121.816 47.3901 121.594 47.7608C120.927 47.835 117.812 47.835 117.071 47.7608C117.071 47.7608 117.071 47.6867 116.997 47.6867V47.6125C118.48 44.35 119.963 41.1616 121.446 37.9733C122.039 37.825 125.079 37.825 126.117 37.8991C126.488 38.344 130.492 46.9452 130.788 47.7608ZM123.818 41.3841C123.744 41.6065 123.67 41.7548 123.596 41.9031C123.373 42.4963 123.151 43.0895 122.929 43.7568C122.854 43.831 122.929 43.9793 122.854 44.1276C123.225 44.1276 123.522 44.1276 123.818 44.1276C124.115 44.1276 124.411 44.2017 124.708 44.0534C124.708 43.3861 124.189 41.9773 123.818 41.3841Z" fill="#910D10"/>
  <path d="M199.82 40.4943C198.708 40.9392 197.595 41.31 196.483 41.7548C196.261 41.6065 196.038 41.3841 195.816 41.31C194.629 40.6426 193.072 41.1617 192.702 42.4222C192.405 43.2378 192.702 44.1276 193.295 44.7208C194.036 45.314 194.778 45.3881 195.667 45.0174C195.964 44.8691 196.038 44.8691 196.261 44.4983C196.112 44.35 195.89 44.4242 195.742 44.4242C195.519 44.4242 195.297 44.4242 195.148 44.4242C195 44.4242 194.778 44.4242 194.555 44.4242C194.555 44.2017 194.555 44.0534 194.555 43.9051C194.555 43.3861 194.555 42.7929 194.555 42.2739C195.593 42.1997 196.557 42.2739 197.521 42.1997C198.485 42.1997 199.449 42.1997 200.413 42.1997C200.561 43.1637 200.413 43.9793 200.042 44.7949C199.82 45.3881 199.375 45.9072 198.93 46.352C196.557 48.7248 192.257 48.6506 189.958 46.2779C187.956 44.2017 188.03 41.0875 190.181 39.2338C191.07 38.4182 192.108 37.9733 193.295 37.7508C194.778 37.5284 196.187 37.7508 197.521 38.4182C198.337 38.7889 199.004 39.3821 199.523 40.1236C199.672 40.1977 199.746 40.346 199.82 40.4943Z" fill="#910D10"/>
  <path d="M153.774 47.7611C153.699 47.1679 153.699 38.7892 153.774 37.8994C154.293 37.7511 156.665 37.7511 157.703 37.8253C157.703 37.9736 157.778 38.196 157.778 38.3443C157.778 40.198 157.778 41.9776 157.778 43.8313C157.778 44.0537 157.778 44.3503 157.778 44.6469C158 44.6469 158.148 44.721 158.297 44.721C159.26 44.721 160.15 44.721 161.114 44.721C161.337 44.721 161.485 44.721 161.707 44.721C161.782 45.3884 161.856 47.0196 161.707 47.687C161.633 47.687 161.559 47.7611 161.485 47.7611C159.038 47.7611 156.517 47.7611 154.07 47.7611C153.922 47.8353 153.848 47.7611 153.774 47.7611Z" fill="#910D10"/>
</svg>
  