<svg width="34" height="37" viewBox="0 0 34 37" fill="none" xmlns="http://www.w3.org/2000/svg">
  <path d="M32.9917 27.7315C27.653 30.8457 22.3143 33.8858 16.9756 37C11.6369 33.8858 6.29827 30.8457 0.959595 27.7315C0.959595 21.5772 0.959595 15.4228 0.959595 9.19439C2.66501 8.15631 4.44456 7.19238 6.22412 6.15431C8.00368 5.11623 9.85739 4.07816 11.6369 3.04008C13.4165 2.002 15.1961 0.963928 16.9756 0C18.8293 1.03808 20.6089 2.07615 22.4626 3.11423C22.5367 4.96794 22.4626 6.82164 22.4626 8.82365C22.6109 8.7495 22.7592 8.7495 22.9075 8.67535C24.2422 7.93387 25.5768 7.19238 26.9115 6.37675C27.0598 6.3026 27.2822 6.15431 27.5047 6.08016C29.3584 7.11824 31.2121 8.15631 32.9917 9.19439C32.9917 11.3447 32.9917 13.4208 32.9917 15.6453C32.8434 15.7194 32.6951 15.8677 32.5468 15.9419C31.2862 16.6834 29.9516 17.4248 28.6911 18.1663C28.5428 18.2405 28.3203 18.3888 28.0979 18.5371C29.7291 19.501 31.3604 20.3908 32.9175 21.3547C33.0658 21.9479 33.0658 25.8778 32.9917 27.7315ZM32.1019 21.5772C30.5448 20.6132 29.0618 19.7976 27.5047 18.9078C25.7251 19.9459 24.0197 20.9098 22.2402 21.9479C20.4606 22.986 18.7552 24.024 16.9756 24.988C15.1961 23.9499 13.4165 22.9118 11.7111 21.9479C11.4887 22.0962 11.3404 22.1703 11.1179 22.2445C9.63494 23.1343 8.15198 24.024 6.59486 24.9138C6.44657 24.988 6.29827 24.988 6.14998 25.0621C6.14998 20.7615 6.14998 16.5351 6.14998 12.3828C6.22412 12.3086 6.29827 12.2345 6.37242 12.1603C8.15198 11.1222 9.85739 10.0842 11.6369 9.12024C11.7111 9.04609 11.8594 9.04609 11.9335 9.04609C11.9335 13.1984 11.9335 17.3507 11.9335 21.4289C13.4165 22.3186 14.8995 23.1343 16.3824 24.024C16.3824 24.024 16.4566 24.024 16.6049 24.024C16.679 23.1343 16.6049 22.2445 16.6049 21.3547C16.6049 20.3908 16.6049 19.501 16.6049 18.5371C16.8273 18.3888 17.0498 18.2405 17.2722 18.1663C18.9035 17.2024 20.4606 16.3126 22.0919 15.3487C25.2061 13.5691 28.3203 11.7154 31.4345 9.93587C31.5828 9.86172 31.8794 9.78757 31.9536 9.49098C30.4706 8.6012 28.9876 7.78557 27.4305 6.89579C26.9856 7.19238 26.5408 7.41483 26.0959 7.63727C25.651 7.93387 25.1319 8.15631 24.687 8.4529C24.2422 8.67535 23.7973 8.97194 23.3524 9.19439C22.9075 9.41683 22.4626 9.78757 21.8694 10.01C21.8694 8.89779 21.8694 7.85972 21.8694 6.82164C21.8694 5.78357 21.8694 4.67134 21.8694 3.55912C20.2381 2.59519 18.6069 1.70541 16.9756 0.815631C16.8273 0.88978 16.679 0.963928 16.6049 1.03808C11.7111 3.85571 6.81731 6.67335 1.92352 9.49098C1.77523 9.56513 1.62693 9.71343 1.47863 9.78757C1.40448 12.9018 1.40448 26.8417 1.55278 27.5832C6.44657 30.4008 11.4145 33.2926 16.3824 36.1844C16.4566 36.1844 16.5307 36.2585 16.679 36.2585C16.679 34.3307 16.679 32.477 16.679 30.6232C21.7953 27.4349 26.9115 24.5431 32.1019 21.5772Z" fill="#910D10"/>
</svg>
  